<mxfile host="app.diagrams.net" modified="2021-10-12T03:01:57.704Z" agent="5.0 (Macintosh; Intel Mac OS X 10_15_7) AppleWebKit/537.36 (KHTML, like Gecko) Chrome/93.0.4577.82 Safari/537.36" etag="d3L_QZm1G7DAZ30BZQ9i" version="15.5.1" type="github">
  <diagram id="C5RBs43oDa-KdzZeNtuy" name="Page-1">
    <mxGraphModel dx="944" dy="562" grid="1" gridSize="10" guides="1" tooltips="1" connect="1" arrows="1" fold="1" page="1" pageScale="1" pageWidth="827" pageHeight="1169" math="0" shadow="0">
      <root>
        <mxCell id="WIyWlLk6GJQsqaUBKTNV-0" />
        <mxCell id="WIyWlLk6GJQsqaUBKTNV-1" parent="WIyWlLk6GJQsqaUBKTNV-0" />
        <mxCell id="bTjo5vAaTFUOxUT6Qte2-28" value="" style="edgeStyle=orthogonalEdgeStyle;rounded=0;orthogonalLoop=1;jettySize=auto;html=1;exitX=1;exitY=0.5;exitDx=0;exitDy=0;" edge="1" parent="WIyWlLk6GJQsqaUBKTNV-1" source="bTjo5vAaTFUOxUT6Qte2-48" target="bTjo5vAaTFUOxUT6Qte2-27">
          <mxGeometry relative="1" as="geometry">
            <mxPoint x="360" y="45" as="sourcePoint" />
          </mxGeometry>
        </mxCell>
        <mxCell id="bTjo5vAaTFUOxUT6Qte2-29" value="Token" style="edgeLabel;html=1;align=center;verticalAlign=middle;resizable=0;points=[];" vertex="1" connectable="0" parent="bTjo5vAaTFUOxUT6Qte2-28">
          <mxGeometry x="0.04" y="1" relative="1" as="geometry">
            <mxPoint as="offset" />
          </mxGeometry>
        </mxCell>
        <mxCell id="bTjo5vAaTFUOxUT6Qte2-49" value="" style="edgeStyle=orthogonalEdgeStyle;rounded=0;orthogonalLoop=1;jettySize=auto;html=1;" edge="1" parent="WIyWlLk6GJQsqaUBKTNV-1" source="WIyWlLk6GJQsqaUBKTNV-3" target="bTjo5vAaTFUOxUT6Qte2-48">
          <mxGeometry relative="1" as="geometry" />
        </mxCell>
        <mxCell id="WIyWlLk6GJQsqaUBKTNV-3" value="HMS Translator,&lt;br&gt;Bueten Beter," style="rounded=1;whiteSpace=wrap;html=1;fontSize=12;glass=0;strokeWidth=1;shadow=0;" parent="WIyWlLk6GJQsqaUBKTNV-1" vertex="1">
          <mxGeometry x="20" y="20" width="120" height="50" as="geometry" />
        </mxCell>
        <mxCell id="bTjo5vAaTFUOxUT6Qte2-40" value="" style="edgeStyle=orthogonalEdgeStyle;rounded=0;orthogonalLoop=1;jettySize=auto;html=1;" edge="1" parent="WIyWlLk6GJQsqaUBKTNV-1" source="bTjo5vAaTFUOxUT6Qte2-26" target="bTjo5vAaTFUOxUT6Qte2-39">
          <mxGeometry relative="1" as="geometry" />
        </mxCell>
        <mxCell id="bTjo5vAaTFUOxUT6Qte2-26" value="Log System" style="whiteSpace=wrap;html=1;rounded=1;shadow=0;strokeWidth=1;glass=0;" vertex="1" parent="WIyWlLk6GJQsqaUBKTNV-1">
          <mxGeometry x="414" y="260" width="113" height="40" as="geometry" />
        </mxCell>
        <mxCell id="bTjo5vAaTFUOxUT6Qte2-31" value="" style="edgeStyle=orthogonalEdgeStyle;rounded=0;orthogonalLoop=1;jettySize=auto;html=1;" edge="1" parent="WIyWlLk6GJQsqaUBKTNV-1" source="bTjo5vAaTFUOxUT6Qte2-27" target="bTjo5vAaTFUOxUT6Qte2-30">
          <mxGeometry relative="1" as="geometry" />
        </mxCell>
        <mxCell id="bTjo5vAaTFUOxUT6Qte2-32" value="No" style="edgeLabel;html=1;align=center;verticalAlign=middle;resizable=0;points=[];" vertex="1" connectable="0" parent="bTjo5vAaTFUOxUT6Qte2-31">
          <mxGeometry x="-0.2667" y="-1" relative="1" as="geometry">
            <mxPoint as="offset" />
          </mxGeometry>
        </mxCell>
        <mxCell id="bTjo5vAaTFUOxUT6Qte2-33" value="" style="edgeStyle=orthogonalEdgeStyle;rounded=0;orthogonalLoop=1;jettySize=auto;html=1;entryX=0.5;entryY=0;entryDx=0;entryDy=0;" edge="1" parent="WIyWlLk6GJQsqaUBKTNV-1" source="bTjo5vAaTFUOxUT6Qte2-27" target="bTjo5vAaTFUOxUT6Qte2-46">
          <mxGeometry relative="1" as="geometry">
            <mxPoint x="471" y="130" as="targetPoint" />
          </mxGeometry>
        </mxCell>
        <mxCell id="bTjo5vAaTFUOxUT6Qte2-34" value="Yes" style="edgeLabel;html=1;align=center;verticalAlign=middle;resizable=0;points=[];" vertex="1" connectable="0" parent="bTjo5vAaTFUOxUT6Qte2-33">
          <mxGeometry x="-0.145" y="4" relative="1" as="geometry">
            <mxPoint as="offset" />
          </mxGeometry>
        </mxCell>
        <mxCell id="bTjo5vAaTFUOxUT6Qte2-27" value="Authenticate" style="rhombus;whiteSpace=wrap;html=1;rounded=1;shadow=0;strokeWidth=1;glass=0;" vertex="1" parent="WIyWlLk6GJQsqaUBKTNV-1">
          <mxGeometry x="430" y="5" width="80" height="80" as="geometry" />
        </mxCell>
        <mxCell id="bTjo5vAaTFUOxUT6Qte2-30" value="End" style="ellipse;whiteSpace=wrap;html=1;rounded=1;shadow=0;strokeWidth=1;glass=0;" vertex="1" parent="WIyWlLk6GJQsqaUBKTNV-1">
          <mxGeometry x="580" y="23.75" width="100" height="42.5" as="geometry" />
        </mxCell>
        <mxCell id="bTjo5vAaTFUOxUT6Qte2-42" style="edgeStyle=orthogonalEdgeStyle;rounded=0;orthogonalLoop=1;jettySize=auto;html=1;exitX=0.5;exitY=0.967;exitDx=0;exitDy=0;exitPerimeter=0;entryX=0.5;entryY=0;entryDx=0;entryDy=0;entryPerimeter=0;" edge="1" parent="WIyWlLk6GJQsqaUBKTNV-1" source="bTjo5vAaTFUOxUT6Qte2-39" target="bTjo5vAaTFUOxUT6Qte2-41">
          <mxGeometry relative="1" as="geometry">
            <Array as="points">
              <mxPoint x="690" y="358" />
              <mxPoint x="690" y="358" />
            </Array>
          </mxGeometry>
        </mxCell>
        <mxCell id="bTjo5vAaTFUOxUT6Qte2-39" value="Saves in DB" style="whiteSpace=wrap;html=1;rounded=1;shadow=0;strokeWidth=1;glass=0;" vertex="1" parent="WIyWlLk6GJQsqaUBKTNV-1">
          <mxGeometry x="630" y="250" width="120" height="60" as="geometry" />
        </mxCell>
        <mxCell id="bTjo5vAaTFUOxUT6Qte2-41" value="DB" style="shape=cylinder3;whiteSpace=wrap;html=1;boundedLbl=1;backgroundOutline=1;size=15;" vertex="1" parent="WIyWlLk6GJQsqaUBKTNV-1">
          <mxGeometry x="660" y="378" width="60" height="80" as="geometry" />
        </mxCell>
        <mxCell id="bTjo5vAaTFUOxUT6Qte2-47" value="" style="edgeStyle=orthogonalEdgeStyle;rounded=0;orthogonalLoop=1;jettySize=auto;html=1;" edge="1" parent="WIyWlLk6GJQsqaUBKTNV-1" source="bTjo5vAaTFUOxUT6Qte2-46" target="bTjo5vAaTFUOxUT6Qte2-26">
          <mxGeometry relative="1" as="geometry" />
        </mxCell>
        <mxCell id="bTjo5vAaTFUOxUT6Qte2-46" value="Log Records" style="whiteSpace=wrap;html=1;rounded=1;shadow=0;strokeWidth=1;glass=0;" vertex="1" parent="WIyWlLk6GJQsqaUBKTNV-1">
          <mxGeometry x="415.5" y="150" width="110" height="45" as="geometry" />
        </mxCell>
        <mxCell id="bTjo5vAaTFUOxUT6Qte2-48" value="sends logs to log system along with token" style="whiteSpace=wrap;html=1;rounded=1;shadow=0;strokeWidth=1;glass=0;" vertex="1" parent="WIyWlLk6GJQsqaUBKTNV-1">
          <mxGeometry x="225" y="22" width="110" height="45" as="geometry" />
        </mxCell>
        <mxCell id="bTjo5vAaTFUOxUT6Qte2-52" value="" style="edgeStyle=orthogonalEdgeStyle;rounded=0;orthogonalLoop=1;jettySize=auto;html=1;" edge="1" parent="WIyWlLk6GJQsqaUBKTNV-1" source="bTjo5vAaTFUOxUT6Qte2-50" target="bTjo5vAaTFUOxUT6Qte2-51">
          <mxGeometry relative="1" as="geometry" />
        </mxCell>
        <mxCell id="bTjo5vAaTFUOxUT6Qte2-50" value="Server Administrator" style="rounded=1;whiteSpace=wrap;html=1;fontSize=12;glass=0;strokeWidth=1;shadow=0;" vertex="1" parent="WIyWlLk6GJQsqaUBKTNV-1">
          <mxGeometry x="20" y="147.5" width="120" height="50" as="geometry" />
        </mxCell>
        <mxCell id="bTjo5vAaTFUOxUT6Qte2-56" value="" style="edgeStyle=orthogonalEdgeStyle;rounded=0;orthogonalLoop=1;jettySize=auto;html=1;" edge="1" parent="WIyWlLk6GJQsqaUBKTNV-1" source="bTjo5vAaTFUOxUT6Qte2-51" target="bTjo5vAaTFUOxUT6Qte2-55">
          <mxGeometry relative="1" as="geometry" />
        </mxCell>
        <mxCell id="bTjo5vAaTFUOxUT6Qte2-57" value="No" style="edgeLabel;html=1;align=center;verticalAlign=middle;resizable=0;points=[];" vertex="1" connectable="0" parent="bTjo5vAaTFUOxUT6Qte2-56">
          <mxGeometry x="-0.3444" relative="1" as="geometry">
            <mxPoint as="offset" />
          </mxGeometry>
        </mxCell>
        <mxCell id="bTjo5vAaTFUOxUT6Qte2-59" value="" style="edgeStyle=orthogonalEdgeStyle;rounded=0;orthogonalLoop=1;jettySize=auto;html=1;" edge="1" parent="WIyWlLk6GJQsqaUBKTNV-1" source="bTjo5vAaTFUOxUT6Qte2-51" target="bTjo5vAaTFUOxUT6Qte2-58">
          <mxGeometry relative="1" as="geometry" />
        </mxCell>
        <mxCell id="bTjo5vAaTFUOxUT6Qte2-60" value="Yes" style="edgeLabel;html=1;align=center;verticalAlign=middle;resizable=0;points=[];" vertex="1" connectable="0" parent="bTjo5vAaTFUOxUT6Qte2-59">
          <mxGeometry x="0.1" y="4" relative="1" as="geometry">
            <mxPoint y="1" as="offset" />
          </mxGeometry>
        </mxCell>
        <mxCell id="bTjo5vAaTFUOxUT6Qte2-51" value="Login" style="rhombus;whiteSpace=wrap;html=1;rounded=1;shadow=0;strokeWidth=1;glass=0;" vertex="1" parent="WIyWlLk6GJQsqaUBKTNV-1">
          <mxGeometry x="40" y="240.5" width="80" height="80" as="geometry" />
        </mxCell>
        <mxCell id="bTjo5vAaTFUOxUT6Qte2-55" value="end" style="ellipse;whiteSpace=wrap;html=1;rounded=1;shadow=0;strokeWidth=1;glass=0;" vertex="1" parent="WIyWlLk6GJQsqaUBKTNV-1">
          <mxGeometry x="20" y="410.5" width="120" height="49.5" as="geometry" />
        </mxCell>
        <mxCell id="bTjo5vAaTFUOxUT6Qte2-58" value="Log reports" style="whiteSpace=wrap;html=1;rounded=1;shadow=0;strokeWidth=1;glass=0;" vertex="1" parent="WIyWlLk6GJQsqaUBKTNV-1">
          <mxGeometry x="180" y="250.5" width="120" height="60" as="geometry" />
        </mxCell>
      </root>
    </mxGraphModel>
  </diagram>
</mxfile>
